HIERARCHY
ROOT hip
{
  OFFSET 0 0 0
  CHANNELS 6 Xposition Yposition Zposition Zrotation Yrotation Xrotation
  JOINT abdomen
  {
    OFFSET 0 20.6881 -0.73152
    CHANNELS 3 Zrotation Xrotation Yrotation
    JOINT chest
    {
      OFFSET 0 11.7043 -0.48768
      CHANNELS 3 Zrotation Xrotation Yrotation
      JOINT neck
      {
        OFFSET 0 22.1894 -2.19456
        CHANNELS 3 Zrotation Xrotation Yrotation
        JOINT head
        {
          OFFSET -0.24384 7.07133 1.2192
          CHANNELS 3 Zrotation Xrotation Yrotation
          JOINT leftEye
          {
            OFFSET 4.14528 8.04674 8.04672
            CHANNELS 3 Zrotation Xrotation Yrotation
            End Site
            {
              OFFSET 1 0 0
            }
          }
          JOINT rightEye
          {
            OFFSET -3.6576 8.04674 8.04672
            CHANNELS 3 Zrotation Xrotation Yrotation
            End Site
            {
              OFFSET 1 0 0
            }
          }
        }
      }
      JOINT rCollar
      {
        OFFSET -2.68224 19.2634 -4.8768
        CHANNELS 3 Zrotation Xrotation Yrotation
        JOINT rShldr
        {
          OFFSET -8.77824 -1.95073 1.46304
          CHANNELS 3 Zrotation Xrotation Yrotation
          JOINT rForeArm
          {
            OFFSET -28.1742 -1.7115 0.48768
            CHANNELS 3 Zrotation Xrotation Yrotation
            JOINT rHand
            {
              OFFSET -22.5879 0.773209 7.07136
              CHANNELS 3 Zrotation Xrotation Yrotation
              JOINT rThumb1
              {
                OFFSET -1.2192 -0.487915 3.41376
                CHANNELS 3 Zrotation Xrotation Yrotation
                JOINT rThumb2
                {
                  OFFSET -3.37035 -0.52449 3.41376
                  CHANNELS 3 Zrotation Xrotation Yrotation
                  End Site
                  {
                    OFFSET -1.78271 -1.18214 1.43049
                  }
                }
              }
              JOINT rIndex1
              {
                OFFSET -7.75947 0.938293 5.60832
                CHANNELS 3 Zrotation Xrotation Yrotation
                JOINT rIndex2
                {
                  OFFSET -2.54057 -0.884171 1.56538
                  CHANNELS 3 Zrotation Xrotation Yrotation
                  End Site
                  {
                    OFFSET -1.62519 -0.234802 1.16502
                  }
                }
              }
              JOINT rMid1
              {
                OFFSET -8.24714 1.18213 3.41376
                CHANNELS 3 Zrotation Xrotation Yrotation
                JOINT rMid2
                {
                  OFFSET -3.10165 -0.590103 1.0647
                  CHANNELS 3 Zrotation Xrotation Yrotation
                  End Site
                  {
                    OFFSET -2.48547 -0.328903 0.83742
                  }
                }
              }
              JOINT rRing1
              {
                OFFSET -8.82822 0.546677 1.51678
                CHANNELS 3 Zrotation Xrotation Yrotation
                JOINT rRing2
                {
                  OFFSET -2.60934 -0.819778 -0.0198488
                  CHANNELS 3 Zrotation Xrotation Yrotation
                  End Site
                  {
                    OFFSET -2.33842 -0.294052 0.168128
                  }
                }
              }
              JOINT rPinky1
              {
                OFFSET -8.27202 -0.0477905 -0.4584
                CHANNELS 3 Zrotation Xrotation Yrotation
                JOINT rPinky2
                {
                  OFFSET -1.82734 -0.647385 -0.700984
                  CHANNELS 3 Zrotation Xrotation Yrotation
                  End Site
                  {
                    OFFSET -1.69225 -0.51767 -0.607171
                  }
                }
              }
            }
          }
        }
      }
      JOINT lCollar
      {
        OFFSET 2.68224 19.2634 -4.8768
        CHANNELS 3 Zrotation Xrotation Yrotation
        JOINT lShldr
        {
          OFFSET 8.77824 -1.95073 1.46304
          CHANNELS 3 Zrotation Xrotation Yrotation
          JOINT lForeArm
          {
            OFFSET 28.1742 -1.7115 0.48768
            CHANNELS 3 Zrotation Xrotation Yrotation
            JOINT lHand
            {
              OFFSET 22.5879 0.773209 7.07136
              CHANNELS 3 Zrotation Xrotation Yrotation
              JOINT lThumb1
              {
                OFFSET 1.2192 -0.487915 3.41376
                CHANNELS 3 Zrotation Xrotation Yrotation
                JOINT lThumb2
                {
                  OFFSET 3.37035 -0.52449 3.41376
                  CHANNELS 3 Zrotation Xrotation Yrotation
                  End Site
                  {
                    OFFSET 1.78271 -1.18214 1.43049
                  }
                }
              }
              JOINT lIndex1
              {
                OFFSET 7.75947 0.938293 5.60832
                CHANNELS 3 Zrotation Xrotation Yrotation
                JOINT lIndex2
                {
                  OFFSET 2.54057 -0.884171 1.56538
                  CHANNELS 3 Zrotation Xrotation Yrotation
                  End Site
                  {
                    OFFSET 1.62519 -0.234802 1.16502
                  }
                }
              }
              JOINT lMid1
              {
                OFFSET 8.24714 1.18213 3.41376
                CHANNELS 3 Zrotation Xrotation Yrotation
                JOINT lMid2
                {
                  OFFSET 3.10165 -0.590103 1.0647
                  CHANNELS 3 Zrotation Xrotation Yrotation
                  End Site
                  {
                    OFFSET 2.48547 -0.328903 0.83742
                  }
                }
              }
              JOINT lRing1
              {
                OFFSET 8.82822 0.546677 1.51678
                CHANNELS 3 Zrotation Xrotation Yrotation
                JOINT lRing2
                {
                  OFFSET 2.60934 -0.819778 -0.0198488
                  CHANNELS 3 Zrotation Xrotation Yrotation
                  End Site
                  {
                    OFFSET 2.33842 -0.294052 0.168128
                  }
                }
              }
              JOINT lPinky1
              {
                OFFSET 8.27202 -0.0477905 -0.4584
                CHANNELS 3 Zrotation Xrotation Yrotation
                JOINT lPinky2
                {
                  OFFSET 1.82734 -0.647385 -0.700984
                  CHANNELS 3 Zrotation Xrotation Yrotation
                  End Site
                  {
                    OFFSET 1.69225 -0.51767 -0.607171
                  }
                }
              }
            }
          }
        }
      }
    }
  }
  JOINT rButtock
  {
    OFFSET -8.77824 4.35084 1.2192
    CHANNELS 3 Zrotation Xrotation Yrotation
    JOINT rThigh
    {
      OFFSET 0 -1.70687 -2.19456
      CHANNELS 3 Zrotation Xrotation Yrotation
      JOINT rShin
      {
        OFFSET 0 -36.8199 0.73152
        CHANNELS 3 Zrotation Xrotation Yrotation
        JOINT rFoot
        {
          OFFSET 0.73152 -45.1104 -5.12064
          CHANNELS 3 Zrotation Xrotation Yrotation
          End Site
          {
            OFFSET -1.1221 -3.69964 12.103
          }
        }
      }
    }
  }
  JOINT lButtock
  {
    OFFSET 8.77824 4.35084 1.2192
    CHANNELS 3 Zrotation Xrotation Yrotation
    JOINT lThigh
    {
      OFFSET 0 -1.70687 -2.19456
      CHANNELS 3 Zrotation Xrotation Yrotation
      JOINT lShin
      {
        OFFSET 0 -36.8199 0.73152
        CHANNELS 3 Zrotation Xrotation Yrotation
        JOINT lFoot
        {
          OFFSET -0.73152 -45.1104 -5.12064
          CHANNELS 3 Zrotation Xrotation Yrotation
          End Site
          {
            OFFSET 1.1221 -3.69964 12.103
          }
        }
      }
    }
  }
}
MOTION
Frames:	5
Frame Time:	0.00833333
-67.7772 85.9575 -4.46657 -21.5457 141.386 -371.901 -15.0353 2.1899 -1.52849 -1.453 -7.68158 -0.329697 -5.11383 26.154 -20.3872 6.37807 -37.6363 -38.9868 -0.0 0.0 0.0 -0.0 0.0 0.0 2.0001e-14 2.84143e-13 -1.00719e-12 30.6788 -53.5237 -17.5885 -27.0034 -26.3497 61.4407 -1.16327 -29.1091 -4.48659 -1.8403e-09 -9.31014e-10 -1.46314e-10 -3.16243e-09 -1.50789e-09 -3.01292e-10 -1.84029e-09 -9.3103e-10 -1.4632e-10 7.73091 5.47488 0.417314 -1.8403e-09 -9.31029e-10 -1.46316e-10 2.90554 0.965183 0.102902 -1.8403e-09 -9.31032e-10 -1.4631e-10 10.2786 0.731801 0.0259123 -1.84031e-09 -9.3102e-10 -1.46303e-10 2.22167 -0.733487 -0.20892 1.99351e-14 2.84142e-13 -1.00745e-12 -96.77 39.8278 18.0739 28.1297 -39.6518 -83.3082 0.104646 9.1736 -1.30059 1.63511e-09 -1.76814e-09 4.65773e-10 2.8308e-09 -3.08681e-09 7.88206e-10 1.6351e-09 -1.76814e-09 4.65778e-10 -7.73091 5.47488 -0.417314 1.63511e-09 -1.76815e-09 4.6577e-10 -2.90554 0.965183 -0.102902 1.63511e-09 -1.76815e-09 4.6577e-10 -10.2786 0.731801 -0.0259123 1.63512e-09 -1.76815e-09 4.6576e-10 -2.22167 -0.733487 0.20892 -2.03217e-16 0.0 -3.88251e-19 -45.4354 -37.0194 -43.2649 -0.327201 39.9699 0.7776 -6.85445 -2.42018 -38.6354 2.03217e-16 0.0 3.88251e-19 -14.3314 0.0279395 -2.035 0.037818 22.5123 -0.61912 -0.189889 -0.921516 -9.3676
-65.4847 85.8162 -4.69085 -21.3809 142.053 -372.158 -15.557 2.17859 -2.71696 -0.903869 -7.75802 -0.625572 -4.9411 26.1577 -20.3496 6.04159 -37.1156 -38.9546 -0.0 0.0 0.0 -0.0 0.0 0.0 1.27636e-13 4.61578e-13 -1.15762e-12 27.9911 -54.133 -20.9543 -27.0167 -26.3938 61.5084 -1.34017 -30.9598 -4.83642 -1.69256e-09 -5.74437e-10 -3.75716e-10 -2.90318e-09 -8.93532e-10 -6.94901e-10 -1.69255e-09 -5.7445e-10 -3.75719e-10 7.73091 5.47488 0.417314 -1.69256e-09 -5.74453e-10 -3.75719e-10 2.90554 0.965183 0.102902 -1.69256e-09 -5.7445e-10 -3.75711e-10 10.2786 0.731801 0.0259123 -1.69257e-09 -5.74444e-10 -3.75703e-10 2.22167 -0.733487 -0.20892 1.27562e-13 4.61578e-13 -1.15787e-12 -96.578 40.0865 18.6786 28.0782 -39.9804 -83.8866 0.0902488 8.53796 -1.20898 1.20492e-09 1.88324e-10 1.40594e-09 2.09447e-09 2.90086e-10 2.4156e-09 1.20492e-09 1.8832e-10 1.40594e-09 -7.73091 5.47488 -0.417314 1.20493e-09 1.88313e-10 1.40593e-09 -2.90554 0.965183 -0.102902 1.20492e-09 1.88312e-10 1.40593e-09 -10.2786 0.731801 -0.0259123 1.20494e-09 1.88313e-10 1.40592e-09 -2.22167 -0.733487 0.20892 -2.03217e-16 0.0 -3.88251e-19 -45.0485 -36.2166 -44.2474 -0.344315 40.6355 0.769626 -6.44977 -1.89418 -38.4708 2.03217e-16 0.0 3.88251e-19 -13.1917 0.840261 -2.55048 0.0451988 23.1856 -0.635633 -0.0206545 0.269377 -9.78593
-62.978 85.7396 -4.75936 -20.7502 141.922 -372.072 -16.0207 1.75932 -3.56399 -0.48134 -7.88082 -0.810588 -4.91145 26.2075 -20.2342 5.86436 -36.4277 -38.7204 -0.0 0.0 0.0 -0.0 0.0 0.0 2.39984e-13 6.17735e-13 -9.42318e-13 25.6763 -54.667 -24.0139 -27.0487 -26.502 61.6816 -1.52001 -32.6802 -5.17347 -1.10654e-09 5.57893e-10 -6.73513e-10 -1.887e-09 1.03024e-09 -1.19216e-09 -1.10653e-09 5.57886e-10 -6.73518e-10 7.73091 5.47488 0.417314 -1.10654e-09 5.57878e-10 -6.73518e-10 2.90554 0.965183 0.102902 -1.10653e-09 5.57882e-10 -6.73509e-10 10.2786 0.731801 0.0259123 -1.10655e-09 5.57886e-10 -6.735e-10 2.22167 -0.733487 -0.20892 2.399e-13 6.17736e-13 -9.42552e-13 -96.3598 40.4595 19.3245 28.0152 -40.3439 -84.5326 0.0770078 7.88958 -1.11597 8.91075e-10 7.37845e-10 1.45406e-09 1.55245e-09 1.24266e-09 2.50024e-09 8.91072e-10 7.37844e-10 1.45407e-09 -7.73091 5.47488 -0.417314 8.91078e-10 7.37836e-10 1.45405e-09 -2.90554 0.965183 -0.102902 8.9107e-10 7.37835e-10 1.45405e-09 -10.2786 0.731801 -0.0259123 8.91086e-10 7.37836e-10 1.45404e-09 -2.22167 -0.733487 0.20892 -2.03217e-16 0.0 -3.88251e-19 -43.7833 -35.8494 -44.04 -0.354665 41.3912 0.801609 -6.8729 -2.51612 -38.1289 2.03217e-16 0.0 3.88251e-19 -12.207 1.37261 -3.30023 0.0524483 23.9325 -0.646447 0.288837 2.07797 -9.52117
-60.4632 85.7086 -4.77636 -20.3359 140.776 -372.244 -16.4216 1.10935 -4.16435 -0.145723 -8.03518 -0.917667 -4.98308 26.2648 -20.0516 5.77857 -35.5863 -38.3347 -0.0 0.0 0.0 -0.0 0.0 0.0 3.688e-13 7.77744e-13 -4.74014e-13 23.6929 -55.1439 -26.8181 -27.0896 -26.6425 61.9098 -1.69407 -34.2592 -5.4923 -1.36798e-10 2.2528e-09 -1.06808e-09 -2.07716e-10 3.90375e-09 -1.84554e-09 -1.36787e-10 2.2528e-09 -1.06809e-09 7.73091 5.47488 0.417314 -1.36796e-10 2.25279e-09 -1.06808e-09 2.90554 0.965183 0.102902 -1.36792e-10 2.25279e-09 -1.06807e-09 10.2786 0.731801 0.0259123 -1.36807e-10 2.25279e-09 -1.06806e-09 2.22167 -0.733487 -0.20892 3.68703e-13 7.77746e-13 -4.74226e-13 -96.1082 40.9182 19.9712 27.9401 -40.7292 -85.2302 0.0649132 7.264 -1.02644 5.69906e-10 5.42282e-10 9.60736e-10 9.93482e-10 9.13276e-10 1.64907e-09 5.69904e-10 5.42286e-10 9.60753e-10 -7.73091 5.47488 -0.417314 5.69909e-10 5.42277e-10 9.60736e-10 -2.90554 0.965183 -0.102902 5.69899e-10 5.42277e-10 9.60736e-10 -10.2786 0.731801 -0.0259123 5.69916e-10 5.42278e-10 9.60723e-10 -2.22167 -0.733487 0.20892 -2.03217e-16 0.0 -3.88251e-19 -41.8107 -35.7423 -42.9924 -0.368573 42.4378 0.864003 -7.70899 -3.84658 -37.3838 2.03217e-16 0.0 3.88251e-19 -11.2759 1.66471 -4.24095 0.0614417 24.8762 -0.655298 0.643449 4.33959 -8.76862
-58.154 85.7338 -4.85578 -20.8894 139.599 -372.65 -16.5337 0.388596 -4.52987 0.0833268 -8.21312 -0.964501 -5.08684 26.318 -19.7933 5.75547 -34.7972 -37.8017 -0.0 0.0 0.0 -0.0 0.0 0.0 4.82691e-13 8.98741e-13 6.91382e-14 21.8565 -55.5583 -29.3921 -27.1175 -26.7397 62.0676 -1.85009 -35.5758 -5.76791 9.53952e-10 4.49883e-09 -1.48399e-09 1.68046e-09 7.72348e-09 -2.53229e-09 9.53962e-10 4.49884e-09 -1.484e-09 7.73091 5.47488 0.417314 9.53953e-10 4.49882e-09 -1.48399e-09 2.90554 0.965183 0.102902 9.53958e-10 4.49882e-09 -1.48399e-09 10.2786 0.731801 0.0259123 9.53942e-10 4.49882e-09 -1.48397e-09 2.22167 -0.733487 -0.20892 4.82581e-13 8.98745e-13 6.89433e-14 -95.8426 41.5341 20.5014 27.855 -41.1228 -85.9546 0.0549907 6.69902 -0.945805 2.09445e-10 1.35158e-10 3.81304e-10 3.65201e-10 2.20014e-10 6.49671e-10 2.09445e-10 1.35166e-10 3.81327e-10 -7.73091 5.47488 -0.417314 2.09449e-10 1.35155e-10 3.81306e-10 -2.90554 0.965183 -0.102902 2.09438e-10 1.35156e-10 3.81306e-10 -10.2786 0.731801 -0.0259123 2.09455e-10 1.35157e-10 3.81291e-10 -2.22167 -0.733487 0.20892 -2.03217e-16 0.0 -3.88251e-19 -39.2841 -35.7929 -41.3898 -0.388942 43.5473 0.926049 -8.47821 -5.30534 -36.3089 2.03217e-16 0.0 3.88251e-19 -10.2559 1.56714 -4.85976 0.0804876 26.3231 -0.663727 0.965041 6.95726 -7.66586
